# xmcd
#
# Track frame offsets: 
#        150
#        18935
#        36112
#        58188
#        82435
#        99688
#        113430
#        133110
#        148446
#
# Disc length: 2273 seconds
#
# Revision: 2
# Processed by: cddbd v1.5.2PL0 Copyright (c) Steve Scherf et al.
# Submitted via: ExactAudioCopyFreeDBPlugin 1.0
#
DISCID=8308df09
DTITLE=Kokomo - Rise And Shine
DYEAR=1975
DGENRE=Funk
TTITLE0=Use Your Imagination
TTITLE1=Little Girl
TTITLE2=That's Enough
TTITLE3=Rise and Shine
TTITLE4=Without Me
TTITLE5=Do It Right
TTITLE6=Angel Love
TTITLE7=Happy Birthday
TTITLE8=Feelin' Good
EXTD=YEAR: 1976
EXTT0=
EXTT1=
EXTT2=
EXTT3=
EXTT4=
EXTT5=
EXTT6=
EXTT7=
EXTT8=
PLAYORDER=
